<?xml version="1.0" encoding="UTF-8"?>
<!DOCTYPE svg PUBLIC "-//W3C//DTD SVG 1.1//EN" "http://www.w3.org/Graphics/SVG/1.1/DTD/svg11.dtd">
<svg xmlns="http://www.w3.org/2000/svg" version="1.1" width="843px" height="296px" style="shape-rendering:geometricPrecision; text-rendering:geometricPrecision; image-rendering:optimizeQuality; fill-rule:evenodd; clip-rule:evenodd" xmlns:xlink="http://www.w3.org/1999/xlink">
<g><path style="opacity:0.953" fill="#fefffe" d="M 81.5,71.5 C 105.997,70.3367 130.663,70.1701 155.5,71C 162.391,73.6229 166.891,78.4563 169,85.5C 169.667,109.833 169.667,134.167 169,158.5C 166.5,166.333 161.333,171.5 153.5,174C 159.276,186.878 167.276,198.211 177.5,208C 165.263,209.626 152.929,209.959 140.5,209C 139.308,207.055 139.308,205.055 140.5,203C 136.442,193.38 131.942,183.88 127,174.5C 122.934,173.536 118.767,173.203 114.5,173.5C 113.927,183.315 114.76,192.982 117,202.5C 117.792,204.587 118.959,206.421 120.5,208C 114.164,209.15 107.664,209.65 101,209.5C 94.3365,209.65 87.8365,209.15 81.5,208C 84.2689,204.628 86.1022,200.795 87,196.5C 87.6667,158.833 87.6667,121.167 87,83.5C 86.0101,78.9936 84.1768,74.9936 81.5,71.5 Z M 114.5,93.5 C 123.833,93.5 133.167,93.5 142.5,93.5C 142.5,112.5 142.5,131.5 142.5,150.5C 133.167,150.5 123.833,150.5 114.5,150.5C 114.5,131.5 114.5,112.5 114.5,93.5 Z"/></g>
<g><path style="opacity:0.95" fill="#fefffe" d="M 198.5,70.5 C 226.5,70.5 254.5,70.5 282.5,70.5C 282.5,79.8333 282.5,89.1667 282.5,98.5C 278.422,97.2981 274.422,95.7981 270.5,94C 257.504,93.5001 244.504,93.3334 231.5,93.5C 231.5,105.167 231.5,116.833 231.5,128.5C 240.552,128.807 249.552,128.307 258.5,127C 261.5,125.5 264.5,124 267.5,122.5C 268.499,133.814 268.832,145.147 268.5,156.5C 264.783,155.311 261.116,153.811 257.5,152C 248.84,151.5 240.173,151.334 231.5,151.5C 231.5,163.167 231.5,174.833 231.5,186.5C 243.171,186.667 254.838,186.5 266.5,186C 272.192,184.976 277.526,183.143 282.5,180.5C 282.818,190.083 282.485,199.583 281.5,209C 253.827,209.833 226.161,209.667 198.5,208.5C 201.839,203.315 203.673,197.649 204,191.5C 204.667,157.167 204.667,122.833 204,88.5C 203.667,85.8333 203.333,83.1667 203,80.5C 201.678,77.035 200.178,73.7017 198.5,70.5 Z"/></g>
<g><path style="opacity:0.95" fill="#fefffe" d="M 303.5,70.5 C 331.5,70.5 359.5,70.5 387.5,70.5C 387.5,79.8333 387.5,89.1667 387.5,98.5C 383.631,96.8357 379.631,95.3357 375.5,94C 362.504,93.5001 349.504,93.3334 336.5,93.5C 336.5,105.167 336.5,116.833 336.5,128.5C 346.64,129.042 356.64,128.209 366.5,126C 368.664,125.086 370.664,123.919 372.5,122.5C 373.287,123.242 373.953,124.075 374.5,125C 373.513,135.418 373.18,145.918 373.5,156.5C 369.895,155.037 366.229,153.537 362.5,152C 353.84,151.5 345.173,151.334 336.5,151.5C 336.5,163.167 336.5,174.833 336.5,186.5C 348.171,186.667 359.838,186.5 371.5,186C 376.894,185.235 381.894,183.402 386.5,180.5C 387.817,190.06 387.817,199.56 386.5,209C 358.827,209.833 331.161,209.667 303.5,208.5C 305.891,204.387 307.724,200.054 309,195.5C 309.667,158.5 309.667,121.5 309,84.5C 308.031,79.4129 306.197,74.7462 303.5,70.5 Z"/></g>
<g><path style="opacity:0.95" fill="#fefffe" d="M 408.5,70.5 C 421.167,70.5 433.833,70.5 446.5,70.5C 444.761,74.3288 443.261,78.3288 442,82.5C 441.5,117.165 441.333,151.832 441.5,186.5C 453.171,186.667 464.838,186.5 476.5,186C 482.25,185.029 487.583,183.196 492.5,180.5C 492.818,190.083 492.485,199.583 491.5,209C 463.687,209.99 436.021,209.657 408.5,208C 411.933,203.453 413.766,198.286 414,192.5C 414.667,156.833 414.667,121.167 414,85.5C 413.24,80.0471 411.406,75.0471 408.5,70.5 Z"/></g>
<g><path style="opacity:0.949" fill="#fefffe" d="M 513.5,71.5 C 526.327,70.3398 539.327,70.1731 552.5,71C 549.305,74.9138 547.471,79.4138 547,84.5C 546.333,121.5 546.333,158.5 547,195.5C 547.412,200.352 549.246,204.519 552.5,208C 551.833,208.333 551.167,208.667 550.5,209C 538.011,209.977 525.677,209.644 513.5,208C 516.49,204.372 518.323,200.205 519,195.5C 519.667,158.167 519.667,120.833 519,83.5C 518.01,78.9936 516.177,74.9936 513.5,71.5 Z"/></g>
<g><path style="opacity:0.948" fill="#fefffe" d="M 573.5,70.5 C 601.5,70.5 629.5,70.5 657.5,70.5C 657.5,79.8333 657.5,89.1667 657.5,98.5C 653.53,97.1185 649.53,95.6185 645.5,94C 632.504,93.5001 619.504,93.3334 606.5,93.5C 606.5,105.167 606.5,116.833 606.5,128.5C 615.552,128.807 624.552,128.307 633.5,127C 636.754,125.973 639.754,124.473 642.5,122.5C 643.499,133.814 643.832,145.147 643.5,156.5C 639.671,154.761 635.671,153.261 631.5,152C 623.173,151.5 614.84,151.334 606.5,151.5C 606.333,166.837 606.5,182.17 607,197.5C 608.184,201.399 609.517,205.066 611,208.5C 605.078,209.157 599.078,209.49 593,209.5C 586.397,209.628 579.897,209.128 573.5,208C 576.457,204.36 578.29,200.193 579,195.5C 579.667,158.167 579.667,120.833 579,83.5C 577.688,78.884 575.855,74.5506 573.5,70.5 Z"/></g>
<g><path style="opacity:0.942" fill="#fefffe" d="M 674.5,70.5 C 687.167,70.5 699.833,70.5 712.5,70.5C 712.703,72.3904 712.037,73.8904 710.5,75C 717.058,90.949 724.558,106.449 733,121.5C 740.888,106.562 748.055,91.395 754.5,76C 754.057,74.175 753.723,72.3417 753.5,70.5C 766.184,70.1676 778.851,70.5009 791.5,71.5C 786.551,76.0404 782.051,81.0404 778,86.5C 767.632,106.853 757.299,127.186 747,147.5C 746.333,164.167 746.333,180.833 747,197.5C 747.829,201.161 749.329,204.495 751.5,207.5C 751.291,208.086 750.957,208.586 750.5,209C 744.5,209.167 738.5,209.333 732.5,209.5C 726.002,209.649 719.669,209.149 713.5,208C 716.298,203.903 718.131,199.403 719,194.5C 719.667,179.167 719.667,163.833 719,148.5C 708.108,127.718 697.442,106.718 687,85.5C 682.569,80.5827 678.402,75.5827 674.5,70.5 Z"/></g>
</svg>
