<?xml version="1.0" standalone="no"?>
<!DOCTYPE svg PUBLIC "-//W3C//DTD SVG 20010904//EN"
 "http://www.w3.org/TR/2001/REC-SVG-20010904/DTD/svg10.dtd">
<svg version="1.0" xmlns="http://www.w3.org/2000/svg"
 width="1302.000000pt" height="1302.000000pt" viewBox="0 0 1302.000000 1302.000000"
 preserveAspectRatio="xMidYMid meet">

<g transform="translate(0.000000,1302.000000) scale(0.100000,-0.100000)"
fill="#ffffff" stroke="none">
<path d="M6497 12898 c-2 -29 -9 -89 -15 -133 -6 -44 -16 -123 -23 -175 -14
-121 -44 -362 -63 -511 -8 -64 -19 -143 -25 -175 -6 -33 -16 -97 -22 -144 -10
-82 -31 -223 -63 -440 -17 -113 -38 -239 -61 -360 -8 -41 -23 -129 -35 -195
-11 -66 -30 -163 -41 -215 -31 -148 -59 -281 -70 -325 -6 -22 -18 -76 -28
-120 -98 -420 -222 -802 -367 -1130 -29 -66 -71 -154 -94 -195 -22 -41 -49
-93 -60 -115 -11 -22 -25 -49 -32 -59 -7 -11 -40 -63 -73 -115 -32 -53 -62
-98 -65 -101 -3 -3 -18 -25 -35 -50 -16 -25 -36 -52 -45 -62 -8 -9 -26 -31
-40 -49 -104 -137 -312 -345 -449 -449 -18 -14 -40 -32 -49 -40 -10 -9 -37
-29 -62 -45 -25 -17 -47 -32 -50 -35 -11 -11 -181 -119 -210 -134 -8 -4 -33
-18 -55 -31 -182 -107 -495 -242 -785 -338 -244 -81 -420 -131 -665 -188 -44
-10 -98 -22 -120 -28 -44 -11 -177 -39 -325 -70 -52 -11 -149 -30 -215 -41
-66 -12 -154 -27 -195 -35 -121 -23 -247 -44 -360 -61 -217 -32 -358 -53 -440
-63 -47 -6 -111 -16 -144 -22 -32 -6 -109 -16 -170 -24 -232 -29 -555 -70
-681 -86 -50 -7 -114 -14 -142 -16 -68 -6 -68 -20 0 -26 28 -2 92 -9 142 -16
126 -16 449 -57 681 -86 61 -8 138 -18 170 -24 33 -6 97 -16 144 -22 82 -10
223 -31 440 -63 113 -17 239 -38 360 -61 41 -8 129 -23 195 -35 66 -11 163
-30 215 -41 148 -31 281 -59 325 -70 22 -6 76 -18 120 -28 402 -94 795 -219
1100 -353 100 -44 289 -137 350 -173 22 -13 47 -27 55 -31 20 -10 204 -127
210 -134 3 -3 25 -18 50 -35 25 -16 52 -36 62 -45 9 -8 31 -26 49 -40 137
-104 345 -312 449 -449 14 -18 32 -40 40 -49 9 -10 29 -37 45 -62 17 -25 32
-47 35 -50 11 -11 119 -181 134 -210 4 -8 18 -33 31 -55 107 -182 242 -495
338 -785 81 -244 131 -420 188 -665 10 -44 22 -98 28 -120 11 -44 39 -177 70
-325 11 -52 30 -149 41 -215 12 -66 27 -154 35 -195 23 -121 44 -247 61 -360
32 -217 53 -358 63 -440 6 -47 16 -111 22 -144 6 -32 16 -109 24 -170 29 -232
70 -555 86 -681 7 -50 14 -114 16 -142 6 -68 20 -68 26 0 2 28 9 92 16 142 16
126 57 449 86 681 8 61 18 138 24 170 6 33 16 97 22 144 10 82 31 223 63 440
17 113 38 239 61 360 8 41 23 129 35 195 11 66 30 163 41 215 31 148 59 281
70 325 6 22 18 76 28 120 94 402 219 795 353 1100 44 100 137 289 173 350 13
22 27 47 31 55 10 20 127 204 134 210 3 3 18 25 35 50 16 25 36 52 45 62 8 9
26 31 40 49 104 137 312 345 449 449 18 14 40 32 49 40 10 9 37 29 62 45 25
17 47 32 50 35 11 11 181 119 210 134 8 4 33 18 55 31 182 107 495 242 785
338 244 81 420 131 665 188 44 10 98 22 120 28 44 11 177 39 325 70 52 11 149
30 215 41 66 12 154 27 195 35 121 23 247 44 360 61 217 32 358 53 440 63 47
6 111 16 144 22 32 6 109 16 170 24 232 29 555 70 681 86 50 7 114 14 143 16
28 3 52 9 52 13 0 4 -24 10 -52 13 -29 2 -93 9 -143 16 -126 16 -449 57 -681
86 -61 8 -138 18 -170 24 -33 6 -97 16 -144 22 -82 10 -223 31 -440 63 -113
17 -239 38 -360 61 -41 8 -129 23 -195 35 -66 11 -163 30 -215 41 -148 31
-281 59 -325 70 -22 6 -76 18 -120 28 -402 94 -795 219 -1100 353 -100 44
-289 137 -350 173 -22 13 -47 27 -55 31 -20 10 -204 127 -210 134 -3 3 -25 18
-50 35 -25 16 -52 36 -62 45 -9 8 -31 26 -49 40 -137 104 -345 312 -449 449
-14 18 -32 40 -40 49 -9 10 -29 37 -45 62 -17 25 -32 47 -35 50 -11 11 -119
181 -134 210 -4 8 -18 33 -31 55 -107 182 -242 495 -338 785 -81 244 -131 420
-188 665 -10 44 -22 98 -28 120 -11 44 -39 177 -70 325 -11 52 -30 149 -41
215 -12 66 -27 154 -35 195 -23 121 -44 247 -61 360 -32 217 -53 358 -63 440
-6 47 -16 111 -22 144 -6 32 -17 111 -25 175 -19 149 -49 390 -63 511 -7 52
-17 131 -23 175 -6 44 -13 104 -15 133 -3 28 -9 52 -13 52 -4 0 -10 -24 -13
-52z"/>
</g>
</svg>
